<?xml version="1.0" encoding="UTF-8"?>
<svg width="134px" height="138px" viewBox="0 0 134 138" version="1.1" xmlns="http://www.w3.org/2000/svg" xmlns:xlink="http://www.w3.org/1999/xlink">
    <!-- Generator: Sketch 49.3 (51167) - http://www.bohemiancoding.com/sketch -->
    <title>dialog_beans</title>
    <desc>Created with Sketch.</desc>
    <defs></defs>
    <g id="APP-User-Ver-1.0" stroke="none" stroke-width="1" fill="none" fill-rule="evenodd">
        <g id="betting_howtoplay" transform="translate(-189.000000, -95.000000)">
            <g id="dialog" transform="translate(38.000000, 95.000000)">
                <g id="dialog_beans" transform="translate(151.000000, 0.000000)">
                    <g id="orange_bean" transform="translate(0.000000, 47.000000)">
                        <path d="M77,38.3501873 C77,17.1697737 59.7626712,0 38.5003332,0 C17.2373288,0 0.000333223701,17.1697737 0,38.3501873 C0,57.5407154 14.1516774,73.4395515 32.6269323,76.2562601 L32.6269323,87.1002229 L28.0591018,87.1002229 C27.6988869,87.1002229 27.4066498,87.3913204 27.4066498,87.7501304 L27.4066498,88.4000379 C27.4066498,89.8359419 28.5755985,91 30.016791,91 L32.6269323,91 L35.8898587,91 C36.2500736,91 36.5423108,90.7092344 36.5423108,90.3500925 L36.5423108,87.1002229 L36.5423108,76.6512498 C37.1907641,76.6834465 37.8435493,76.7000427 38.5003332,76.7000427 C40.9535261,76.7000427 43.3520703,76.4686915 45.6779717,76.0318793 L45.6779717,87.1002229 L41.1101413,87.1002229 C40.7495932,87.1002229 40.4576892,87.3913204 40.4576892,87.7501304 L40.4576892,88.4000379 C40.4576892,89.8359419 41.6263048,91 43.0678305,91 L45.6779717,91 L48.940565,91 C49.3011131,91 49.5933502,90.7092344 49.5933502,90.3500925 L49.5933502,87.1002229 L49.5933502,75.0815804 C65.4478007,70.3370562 77,55.6889104 77,38.3501873" id="Fill-7" fill="#FFAC00"></path>
                        <path d="M18.332,21.9717333 C17.3123333,20.9517333 17.312,19.2980667 18.332,18.2790667 C19.3516667,17.2590667 21.005,17.2590667 22.0246667,18.2790667 C23.0443333,19.2980667 23.0443333,20.9517333 22.0243333,21.9717333 C21.005,22.9910667 19.3516667,22.9910667 18.332,21.9717333" id="Fill-8" fill="#000000"></path>
                        <path d="M26.1650333,21.9717333 C25.1453667,20.9517333 25.1450333,19.2980667 26.1650333,18.2790667 C27.1847,17.2590667 28.8380333,17.2590667 29.8580333,18.2790667 C30.8773667,19.2980667 30.8773667,20.9517333 29.8577,21.9717333 C28.8380333,22.9910667 27.1847,22.9910667 26.1650333,21.9717333" id="Fill-9" fill="#000000"></path>
                    </g>
                    <g id="yellow_bean" transform="translate(56.000000, 0.000000)">
                        <path d="M0.186434767,52.5976902 C0.186770974,31.1198415 17.5784175,13.7089537 39.0317796,13.7089537 C60.4848055,13.7089537 77.8761158,31.1198415 77.8761158,52.5976902 L77.8761158,74.5686366 C77.8761158,92.1505098 66.2204951,107.004695 50.223771,111.81551 L50.223771,134.04529 L50.223771,137.340798 C50.223771,137.704983 49.9289175,137.999832 49.5654779,137.999832 L46.2736761,137.999832 L43.6401675,137.999832 C42.1857365,137.999832 41.0063227,136.819427 41.0063227,135.363359 L41.0063227,134.704324 C41.0063227,134.340476 41.3011761,134.04529 41.664952,134.04529 L46.2736761,134.04529 L46.2736761,112.77949 C43.926952,113.222437 41.5069348,113.457037 39.0317796,113.457037 C38.3691158,113.457037 37.7104865,113.440207 37.0562279,113.407559 L37.0562279,134.04529 L37.0562279,137.340798 C37.0562279,137.704983 36.7613744,137.999832 36.3979348,137.999832 L33.1057968,137.999832 L30.4722882,137.999832 C29.0178572,137.999832 27.8387796,136.819427 27.8387796,135.363359 L27.8387796,134.704324 C27.8387796,134.340476 28.133633,134.04529 28.4970727,134.04529 L33.1057968,134.04529 L33.1057968,113.007022 C14.4651417,110.150759 0.186434767,94.0286561 0.186434767,74.5686366 L0.186434767,52.5976902 Z" id="Fill-1" fill="#FFCB00"></path>
                        <path d="M19.013046,36.285619 C17.9845891,35.2556678 17.9839167,33.5858678 19.013046,32.5565898 C20.0415029,31.5266385 21.7090891,31.5266385 22.737546,32.5565898 C23.7656667,33.5858678 23.7656667,35.2556678 22.7372098,36.285619 C21.7090891,37.3148971 20.0415029,37.3148971 19.013046,36.285619" id="Fill-4" fill="#000000"></path>
                        <path d="M26.9135718,36.285619 C25.8851149,35.2556678 25.8847787,33.5858678 26.9135718,32.5565898 C27.9420287,31.5266385 29.6096149,31.5266385 30.6380718,32.5565898 C31.6665287,33.5858678 31.6665287,35.2556678 30.6377356,36.285619 C29.6096149,37.3148971 27.9420287,37.3148971 26.9135718,36.285619" id="Fill-6" fill="#000000"></path>
                        <path d="M22.1915796,42.3308268 C22.1919158,43.7865585 23.3709934,44.9673 24.8250882,44.9673 C26.2795193,44.9673 27.458933,43.7865585 27.4592693,42.3308268" id="Fill-8" fill="#EE6807"></path>
                        <path d="M39.8303046,-3.36585366e-05 C33.2853649,-0.000706829268 27.9806925,5.30993707 27.9780029,11.8639273 L18.538658,11.8639273 C17.4476667,11.8639273 16.5631063,12.7494834 16.5631063,13.8413663 C16.5631063,14.9335859 17.4476667,15.819142 18.538658,15.819142 L51.6812615,15.819142 L51.6812615,11.8639273 C51.6812615,5.30892732 46.3759167,-0.00205317073 39.8303046,-3.36585366e-05" id="Fill-10" fill="#6985C6"></path>
                    </g>
                </g>
            </g>
        </g>
    </g>
</svg>