<?xml version="1.0" encoding="UTF-8"?>
<svg width="145px" height="50px" viewBox="0 0 145 50" version="1.1" xmlns="http://www.w3.org/2000/svg" xmlns:xlink="http://www.w3.org/1999/xlink">
    <!-- Generator: Sketch 49.3 (51167) - http://www.bohemiancoding.com/sketch -->
    <title>Page 1</title>
    <desc>Created with Sketch.</desc>
    <defs></defs>
    <g id="Visual-Identity" stroke="none" stroke-width="1" fill="none" fill-rule="evenodd">
        <g id="Artboard" transform="translate(-238.000000, -378.000000)">
            <g id="Page-1" transform="translate(238.000000, 378.000000)">
                <path d="M144.285786,44.1964643 C144.680071,44.1964643 145.000071,44.5164643 145.000071,44.91075 L145.000071,49.28575 C145.000071,49.6800357 144.680071,50.0000357 144.285786,50.0000357 L104.285786,50.0000357 C102.313286,50.0000357 100.714357,48.40075 100.714357,46.4286071 L100.714357,44.91075 C100.714357,44.5164643 101.034357,44.1964643 101.428643,44.1964643 L101.500429,44.1964643 L107.0715,44.1964643 L144.285786,44.1964643 Z M129.642929,37.1428929 C129.642929,34.3814643 131.8815,32.1428929 134.642929,32.1428929 C137.404357,32.1428929 139.642929,34.3814643 139.642929,37.1428929 C139.642929,39.9039643 137.404357,42.1428929 134.642929,42.1428929 C131.8815,42.1428929 129.642929,39.9039643 129.642929,37.1428929 Z M106.071143,37.1428929 C106.071143,34.3814643 108.309714,32.1428929 111.071143,32.1428929 C113.832571,32.1428929 116.071143,34.3814643 116.071143,37.1428929 C116.071143,39.9039643 113.832571,42.1428929 111.071143,42.1428929 C108.309714,42.1428929 106.071143,39.9039643 106.071143,37.1428929 Z M143.214357,30.0628664 C143.214357,30.4717553 142.894357,30.8036071 142.500071,30.8036071 L106.0715,30.8036071 C104.100071,30.8036071 102.501857,29.1473108 102.500071,27.1036071 L102.500071,27.0999034 L102.500071,27.0961997 L102.500071,11.5443479 C102.500071,11.135459 102.820071,10.8036071 103.214357,10.8036071 L142.500071,10.8036071 C142.894357,10.8036071 143.214357,11.135459 143.214357,11.5443479 L143.214357,30.0628664 Z M135.178643,23.9517553 L135.178643,17.655459 C135.178643,17.2465701 134.858643,16.9147183 134.464357,16.9147183 L111.250071,16.9147183 C110.855786,16.9147183 110.535786,17.2465701 110.535786,17.655459 L110.535786,23.9517553 C110.535786,24.3606442 110.855786,24.692496 111.250071,24.692496 L134.464357,24.692496 C134.858643,24.692496 135.178643,24.3606442 135.178643,23.9517553 Z M144.285786,2.14289286 C144.680071,2.14289286 145.000071,2.46289286 145.000071,2.85717857 L145.000071,7.23217857 C145.000071,7.62646429 144.680071,7.94646429 144.285786,7.94646429 L104.285786,7.94646429 C102.313286,7.94646429 100.714357,6.34753571 100.714357,4.37503571 L100.714357,2.85717857 C100.714357,2.46289286 101.034357,2.14289286 101.428643,2.14289286 L101.500429,2.14289286 L107.0715,2.14289286 L144.285786,2.14289286 Z M91.0715,37.7678929 C91.4661429,37.7678929 91.7857857,38.0878929 91.7857857,38.4821786 L91.7857857,49.28575 C91.7857857,49.6800357 91.4661429,50.0000357 91.0715,50.0000357 L54.6429286,50.0000357 C52.6715,50.0000357 51.0732857,48.4028929 51.0715,46.4321786 L51.0715,46.4286071 L51.0715,46.4250357 L51.0715,38.4821786 C51.0715,38.0878929 51.3915,37.7678929 51.7857857,37.7678929 L91.0715,37.7678929 Z M83.7500714,44.2411071 L83.7500714,43.5268214 C83.7500714,43.1325357 83.4304286,42.8125357 83.0357857,42.8125357 L59.8215,42.8125357 C59.4272143,42.8125357 59.1072143,43.1325357 59.1072143,43.5268214 L59.1072143,44.2411071 C59.1072143,44.6353929 59.4272143,44.9553929 59.8215,44.9553929 L83.0357857,44.9553929 C83.4304286,44.9553929 83.7500714,44.6353929 83.7500714,44.2411071 Z M51.7857143,30.7142857 L55.3571429,30.7142857 L55.3571429,28.5714286 L54.6428571,28.5714286 C52.6703571,28.5714286 51.0714286,26.9725 51.0714286,25 L51.0714286,17.1428571 C51.0714286,16.7485714 51.3914286,16.4285714 51.7857143,16.4285714 L91.0714286,16.4285714 C91.4660714,16.4285714 91.7857143,16.7485714 91.7857143,17.1428571 L91.7857143,27.8571429 C91.7857143,28.2514286 91.4660714,28.5714286 91.0714286,28.5714286 L87.5,28.5714286 L87.5,30.7142857 L91.0714286,30.7142857 C91.4660714,30.7142857 91.7857143,31.0342857 91.7857143,31.4285714 L91.7857143,35 C91.7857143,35.3946429 91.4660714,35.7142857 91.0714286,35.7142857 L51.7857143,35.7142857 C51.3914286,35.7142857 51.0714286,35.3946429 51.0714286,35 L51.0714286,31.4285714 C51.0714286,31.0342857 51.3914286,30.7142857 51.7857143,30.7142857 Z M63.5714286,30.7142857 L79.2857143,30.7142857 L79.2857143,28.5714286 L63.5714286,28.5714286 L63.5714286,30.7142857 Z M59.1071429,22.1428571 L59.1071429,22.8571429 C59.1071429,23.2514286 59.4267857,23.5714286 59.8214286,23.5714286 L83.0357143,23.5714286 C83.4303571,23.5714286 83.75,23.2514286 83.75,22.8571429 L83.75,22.1428571 C83.75,21.7485714 83.4303571,21.4285714 83.0357143,21.4285714 L59.8214286,21.4285714 C59.4267857,21.4285714 59.1071429,21.7485714 59.1071429,22.1428571 Z M92.8568571,2.14289286 C93.2511429,2.14289286 93.5711429,2.46289286 93.5711429,2.85717857 L93.5711429,6.42860714 C93.5711429,6.82289286 93.2511429,7.14289286 92.8568571,7.14289286 L87.5511429,7.14289286 L75.5804286,7.14289286 L75.5804286,9.37503571 L91.0715,9.37503571 C91.4657857,9.37503571 91.7857857,9.69503571 91.7857857,10.0893214 L91.7857857,13.66075 C91.7857857,14.0550357 91.4657857,14.3750357 91.0715,14.3750357 L51.7857857,14.3750357 C51.3911429,14.3750357 51.0715,14.0550357 51.0715,13.66075 L51.0715,10.0893214 C51.0715,9.69503571 51.3911429,9.37503571 51.7857857,9.37503571 L67.2768571,9.37503571 L67.2768571,7.14289286 L52.8568571,7.14289286 C50.8847143,7.14289286 49.2854286,5.54396429 49.2854286,3.57146429 L49.2854286,2.85717857 C49.2854286,2.65396429 49.3715,2.47146429 49.5075714,2.34146429 C49.6357857,2.21896429 49.8086429,2.14289286 49.9997143,2.14289286 L56.1293571,2.14289286 L67.2768571,2.14289286 L67.2768571,0.714321429 C67.2768571,0.320035714 67.5965,3.57142857e-05 67.9911429,3.57142857e-05 L74.8661429,3.57142857e-05 C75.2604286,3.57142857e-05 75.5804286,0.320035714 75.5804286,0.714321429 L75.5804286,2.14289286 L87.5511429,2.14289286 L92.8568571,2.14289286 Z" id="Combined-Shape" fill="#000000"></path>
                <g id="logo">
                    <path d="M42.1429286,21.0714643 C42.1429286,9.43396429 32.7086429,3.57142857e-05 21.0715,3.57142857e-05 C9.43435714,3.57142857e-05 7.14285714e-05,9.43396429 7.14285714e-05,21.0714643 C7.14285714e-05,31.6153929 7.74542857,40.3514643 17.8572143,41.8986071 L17.8572143,47.8571786 L15.3572143,47.8571786 C15.1600714,47.8571786 15.0000714,48.0171786 15.0000714,48.2143214 L15.0000714,48.5714643 C15.0000714,49.3603929 15.6397143,50.0000357 16.4286429,50.0000357 L17.8572143,50.0000357 L19.6429286,50.0000357 C19.8400714,50.0000357 20.0000714,49.8400357 20.0000714,49.6428929 L20.0000714,47.8571786 L20.0000714,42.1161071 C20.3550714,42.1339643 20.7122143,42.1428929 21.0715,42.1428929 C22.4143571,42.1428929 23.7272143,42.01575 25.0000714,41.77575 L25.0000714,47.8571786 L22.5000714,47.8571786 C22.3029286,47.8571786 22.1429286,48.0171786 22.1429286,48.2143214 L22.1429286,48.5714643 C22.1429286,49.3603929 22.7825714,50.0000357 23.5715,50.0000357 L25.0000714,50.0000357 L26.7857857,50.0000357 C26.9829286,50.0000357 27.1429286,49.8400357 27.1429286,49.6428929 L27.1429286,47.8571786 L27.1429286,41.2536071 C35.8204286,38.6464643 42.1429286,30.59825 42.1429286,21.0714643" id="Fill-18" fill="#FFCB00"></path>
                    <path d="M10.2124643,12.2328571 C9.65460714,11.675 9.65460714,10.77 10.2124643,10.2125 C10.7703214,9.65428571 11.6749643,9.65428571 12.2328214,10.2125 C12.7906786,10.77 12.7906786,11.675 12.2328214,12.2328571 C11.6749643,12.7907143 10.7703214,12.7907143 10.2124643,12.2328571 Z M14.4981786,12.2328571 C13.9403214,11.675 13.9403214,10.77 14.4981786,10.2125 C15.0560357,9.65428571 15.9606786,9.65428571 16.5185357,10.2125 C17.0763929,10.77 17.0763929,11.675 16.5185357,12.2328571 C15.9606786,12.7907143 15.0560357,12.7907143 14.4981786,12.2328571 Z" id="Combined-Shape" fill="#000000"></path>
                </g>
            </g>
        </g>
    </g>
</svg>